<mxfile host="65bd71144e">
    <diagram id="OoIQ4XZbiuPOMCqFzGjl" name="ページ1">
        <mxGraphModel dx="744" dy="563" grid="1" gridSize="10" guides="1" tooltips="1" connect="1" arrows="1" fold="1" page="1" pageScale="1" pageWidth="827" pageHeight="1169" math="0" shadow="0">
            <root>
                <mxCell id="0"/>
                <mxCell id="1" parent="0"/>
                <mxCell id="2" value="ユーザ" style="shape=umlActor;verticalLabelPosition=bottom;verticalAlign=top;html=1;outlineConnect=0;" vertex="1" parent="1">
                    <mxGeometry x="40" y="370" width="30" height="60" as="geometry"/>
                </mxCell>
                <mxCell id="3" value="システムメニュー画面" style="shape=umlBoundary;whiteSpace=wrap;html=1;fillColor=#d5e8d4;strokeColor=#82b366;" vertex="1" parent="1">
                    <mxGeometry x="160" y="240" width="100" height="80" as="geometry"/>
                </mxCell>
                <mxCell id="4" value="" style="endArrow=classic;html=1;exitX=0.5;exitY=0.5;exitDx=0;exitDy=0;exitPerimeter=0;entryX=-0.004;entryY=0.5;entryDx=0;entryDy=0;entryPerimeter=0;" edge="1" parent="1" source="2" target="3">
                    <mxGeometry width="50" height="50" relative="1" as="geometry">
                        <mxPoint x="390" y="360" as="sourcePoint"/>
                        <mxPoint x="440" y="310" as="targetPoint"/>
                    </mxGeometry>
                </mxCell>
                <mxCell id="5" value="利用日の入力画面" style="shape=umlBoundary;whiteSpace=wrap;html=1;fillColor=#d5e8d4;strokeColor=#82b366;" vertex="1" parent="1">
                    <mxGeometry x="160" y="360" width="100" height="80" as="geometry"/>
                </mxCell>
                <mxCell id="6" value="" style="endArrow=classic;html=1;exitX=0.5;exitY=0.5;exitDx=0;exitDy=0;exitPerimeter=0;entryX=0.028;entryY=0.5;entryDx=0;entryDy=0;entryPerimeter=0;" edge="1" parent="1" source="2" target="5">
                    <mxGeometry width="50" height="50" relative="1" as="geometry">
                        <mxPoint x="390" y="360" as="sourcePoint"/>
                        <mxPoint x="440" y="310" as="targetPoint"/>
                    </mxGeometry>
                </mxCell>
                <mxCell id="7" value="予約情報入力画面" style="shape=umlBoundary;whiteSpace=wrap;html=1;fillColor=#d5e8d4;strokeColor=#82b366;" vertex="1" parent="1">
                    <mxGeometry x="160" y="600" width="100" height="80" as="geometry"/>
                </mxCell>
                <mxCell id="8" value="" style="endArrow=classic;html=1;exitX=0.5;exitY=0.5;exitDx=0;exitDy=0;exitPerimeter=0;entryX=0.02;entryY=0.56;entryDx=0;entryDy=0;entryPerimeter=0;" edge="1" parent="1" source="2" target="7">
                    <mxGeometry width="50" height="50" relative="1" as="geometry">
                        <mxPoint x="390" y="360" as="sourcePoint"/>
                        <mxPoint x="159" y="520" as="targetPoint"/>
                    </mxGeometry>
                </mxCell>
                <mxCell id="9" value="利用日又は、予約情報入力画面表示" style="ellipse;shape=umlControl;whiteSpace=wrap;html=1;fillColor=#f8cecc;strokeColor=#b85450;" vertex="1" parent="1">
                    <mxGeometry x="350" y="240" width="70" height="80" as="geometry"/>
                </mxCell>
                <mxCell id="10" value="" style="endArrow=classic;html=1;entryX=0.017;entryY=0.51;entryDx=0;entryDy=0;entryPerimeter=0;exitX=1.016;exitY=0.52;exitDx=0;exitDy=0;exitPerimeter=0;" edge="1" parent="1" source="3" target="9">
                    <mxGeometry width="50" height="50" relative="1" as="geometry">
                        <mxPoint x="270" y="450" as="sourcePoint"/>
                        <mxPoint x="320" y="400" as="targetPoint"/>
                    </mxGeometry>
                </mxCell>
                <mxCell id="11" value="" style="endArrow=classic;html=1;exitX=0.074;exitY=0.84;exitDx=0;exitDy=0;exitPerimeter=0;entryX=0.976;entryY=0.27;entryDx=0;entryDy=0;entryPerimeter=0;" edge="1" parent="1" source="9" target="5">
                    <mxGeometry width="50" height="50" relative="1" as="geometry">
                        <mxPoint x="280" y="370" as="sourcePoint"/>
                        <mxPoint x="330" y="320" as="targetPoint"/>
                    </mxGeometry>
                </mxCell>
                <mxCell id="12" value="会議室予約システム" style="ellipse;shape=umlEntity;whiteSpace=wrap;html=1;fillColor=#dae8fc;strokeColor=#6c8ebf;" vertex="1" parent="1">
                    <mxGeometry x="510" y="360" width="80" height="80" as="geometry"/>
                </mxCell>
                <mxCell id="13" value="会議室予約情報" style="ellipse;shape=umlControl;whiteSpace=wrap;html=1;fillColor=#f8cecc;strokeColor=#b85450;" vertex="1" parent="1">
                    <mxGeometry x="350" y="380" width="70" height="80" as="geometry"/>
                </mxCell>
                <mxCell id="14" value="" style="endArrow=classic;html=1;entryX=0.034;entryY=0.57;entryDx=0;entryDy=0;entryPerimeter=0;exitX=0.984;exitY=0.67;exitDx=0;exitDy=0;exitPerimeter=0;" edge="1" parent="1" source="5" target="13">
                    <mxGeometry width="50" height="50" relative="1" as="geometry">
                        <mxPoint x="270" y="450" as="sourcePoint"/>
                        <mxPoint x="320" y="400" as="targetPoint"/>
                    </mxGeometry>
                </mxCell>
                <mxCell id="15" value="" style="endArrow=classic;startArrow=classic;html=1;entryX=0;entryY=0.5;entryDx=0;entryDy=0;exitX=1.017;exitY=0.545;exitDx=0;exitDy=0;exitPerimeter=0;" edge="1" parent="1" source="13" target="12">
                    <mxGeometry width="50" height="50" relative="1" as="geometry">
                        <mxPoint x="270" y="450" as="sourcePoint"/>
                        <mxPoint x="320" y="400" as="targetPoint"/>
                    </mxGeometry>
                </mxCell>
                <mxCell id="16" value="" style="endArrow=classic;html=1;entryX=0.776;entryY=0.02;entryDx=0;entryDy=0;entryPerimeter=0;exitX=0.451;exitY=0.99;exitDx=0;exitDy=0;exitPerimeter=0;" edge="1" parent="1" source="9" target="7">
                    <mxGeometry width="50" height="50" relative="1" as="geometry">
                        <mxPoint x="270" y="450" as="sourcePoint"/>
                        <mxPoint x="320" y="400" as="targetPoint"/>
                    </mxGeometry>
                </mxCell>
                <mxCell id="17" value="新規予約情報" style="ellipse;shape=umlControl;whiteSpace=wrap;html=1;fillColor=#f8cecc;strokeColor=#b85450;" vertex="1" parent="1">
                    <mxGeometry x="350" y="600" width="70" height="80" as="geometry"/>
                </mxCell>
                <mxCell id="18" value="" style="endArrow=classic;startArrow=classic;html=1;entryX=0.065;entryY=0.78;entryDx=0;entryDy=0;exitX=0.977;exitY=0.528;exitDx=0;exitDy=0;exitPerimeter=0;entryPerimeter=0;" edge="1" parent="1" source="17" target="12">
                    <mxGeometry width="50" height="50" relative="1" as="geometry">
                        <mxPoint x="431" y="434" as="sourcePoint"/>
                        <mxPoint x="520" y="410" as="targetPoint"/>
                    </mxGeometry>
                </mxCell>
                <mxCell id="19" value="" style="endArrow=classic;html=1;exitX=1.032;exitY=0.51;exitDx=0;exitDy=0;exitPerimeter=0;entryX=-0.017;entryY=0.498;entryDx=0;entryDy=0;entryPerimeter=0;" edge="1" parent="1" source="7" target="17">
                    <mxGeometry width="50" height="50" relative="1" as="geometry">
                        <mxPoint x="40" y="457.5" as="sourcePoint"/>
                        <mxPoint x="147" y="582.5" as="targetPoint"/>
                    </mxGeometry>
                </mxCell>
                <mxCell id="20" value="予約完了画面" style="shape=umlBoundary;whiteSpace=wrap;html=1;fillColor=#d5e8d4;strokeColor=#82b366;" vertex="1" parent="1">
                    <mxGeometry x="160" y="730" width="100" height="80" as="geometry"/>
                </mxCell>
                <mxCell id="21" value="" style="endArrow=classic;html=1;entryX=0.491;entryY=0.155;entryDx=0;entryDy=0;entryPerimeter=0;exitX=0.589;exitY=1.02;exitDx=0;exitDy=0;exitPerimeter=0;" edge="1" parent="1" source="17" target="22">
                    <mxGeometry width="50" height="50" relative="1" as="geometry">
                        <mxPoint x="390" y="590" as="sourcePoint"/>
                        <mxPoint x="320" y="500" as="targetPoint"/>
                    </mxGeometry>
                </mxCell>
                <mxCell id="22" value="予約結果表示" style="ellipse;shape=umlControl;whiteSpace=wrap;html=1;fillColor=#f8cecc;strokeColor=#b85450;" vertex="1" parent="1">
                    <mxGeometry x="350" y="730" width="70" height="80" as="geometry"/>
                </mxCell>
                <mxCell id="23" value="" style="endArrow=classic;html=1;entryX=0.976;entryY=0.445;entryDx=0;entryDy=0;entryPerimeter=0;exitX=0.04;exitY=0.415;exitDx=0;exitDy=0;exitPerimeter=0;" edge="1" parent="1" source="22" target="20">
                    <mxGeometry width="50" height="50" relative="1" as="geometry">
                        <mxPoint x="330" y="560" as="sourcePoint"/>
                        <mxPoint x="380" y="510" as="targetPoint"/>
                    </mxGeometry>
                </mxCell>
                <mxCell id="24" value="予約情報表示" style="ellipse;shape=umlControl;whiteSpace=wrap;html=1;fillColor=#f8cecc;strokeColor=#b85450;" vertex="1" parent="1">
                    <mxGeometry x="350" y="480" width="70" height="80" as="geometry"/>
                </mxCell>
                <mxCell id="25" value="" style="endArrow=classic;html=1;entryX=0.509;entryY=0.125;entryDx=0;entryDy=0;entryPerimeter=0;exitX=0.509;exitY=0.98;exitDx=0;exitDy=0;exitPerimeter=0;" edge="1" parent="1" source="13" target="24">
                    <mxGeometry width="50" height="50" relative="1" as="geometry">
                        <mxPoint x="210" y="560" as="sourcePoint"/>
                        <mxPoint x="260" y="510" as="targetPoint"/>
                    </mxGeometry>
                </mxCell>
                <mxCell id="26" value="全会議室予約情報結果画面" style="shape=umlBoundary;whiteSpace=wrap;html=1;fillColor=#d5e8d4;strokeColor=#82b366;" vertex="1" parent="1">
                    <mxGeometry x="160" y="480" width="100" height="80" as="geometry"/>
                </mxCell>
                <mxCell id="27" value="" style="endArrow=classic;html=1;entryX=0.976;entryY=0.49;entryDx=0;entryDy=0;entryPerimeter=0;exitX=0.006;exitY=0.52;exitDx=0;exitDy=0;exitPerimeter=0;" edge="1" parent="1" source="24" target="26">
                    <mxGeometry width="50" height="50" relative="1" as="geometry">
                        <mxPoint x="330" y="560" as="sourcePoint"/>
                        <mxPoint x="380" y="510" as="targetPoint"/>
                    </mxGeometry>
                </mxCell>
                <mxCell id="28" value="「新規予約」を選択" style="text;html=1;align=center;verticalAlign=middle;resizable=0;points=[];autosize=1;strokeColor=none;fillColor=none;" vertex="1" parent="1">
                    <mxGeometry y="290" width="130" height="30" as="geometry"/>
                </mxCell>
                <mxCell id="29" value="利用日入力" style="text;html=1;align=center;verticalAlign=middle;resizable=0;points=[];autosize=1;strokeColor=none;fillColor=none;" vertex="1" parent="1">
                    <mxGeometry x="90" y="360" width="80" height="30" as="geometry"/>
                </mxCell>
                <mxCell id="30" value="予約情報入力" style="text;html=1;align=center;verticalAlign=middle;resizable=0;points=[];autosize=1;strokeColor=none;fillColor=none;" vertex="1" parent="1">
                    <mxGeometry x="15" y="520" width="100" height="30" as="geometry"/>
                </mxCell>
                <mxCell id="31" value="情報取得" style="text;html=1;align=center;verticalAlign=middle;resizable=0;points=[];autosize=1;strokeColor=none;fillColor=none;" vertex="1" parent="1">
                    <mxGeometry x="430" y="370" width="70" height="30" as="geometry"/>
                </mxCell>
                <mxCell id="33" value="エラーメッセージ表示" style="ellipse;shape=umlControl;whiteSpace=wrap;html=1;fillColor=#f8cecc;strokeColor=#b85450;" vertex="1" parent="1">
                    <mxGeometry x="480" y="670" width="70" height="80" as="geometry"/>
                </mxCell>
                <mxCell id="34" value="" style="endArrow=classic;html=1;entryX=0.314;entryY=0.205;entryDx=0;entryDy=0;entryPerimeter=0;exitX=0.949;exitY=0.7;exitDx=0;exitDy=0;exitPerimeter=0;" edge="1" parent="1" source="17" target="33">
                    <mxGeometry width="50" height="50" relative="1" as="geometry">
                        <mxPoint x="400" y="560" as="sourcePoint"/>
                        <mxPoint x="450" y="510" as="targetPoint"/>
                    </mxGeometry>
                </mxCell>
                <mxCell id="36" value="" style="endArrow=none;html=1;" edge="1" parent="1">
                    <mxGeometry width="50" height="50" relative="1" as="geometry">
                        <mxPoint x="550" y="720" as="sourcePoint"/>
                        <mxPoint x="640" y="720" as="targetPoint"/>
                    </mxGeometry>
                </mxCell>
                <mxCell id="37" value="" style="endArrow=none;html=1;" edge="1" parent="1">
                    <mxGeometry width="50" height="50" relative="1" as="geometry">
                        <mxPoint x="640" y="720" as="sourcePoint"/>
                        <mxPoint x="640" y="280" as="targetPoint"/>
                    </mxGeometry>
                </mxCell>
                <mxCell id="39" value="" style="endArrow=classic;html=1;entryX=0.691;entryY=0.175;entryDx=0;entryDy=0;entryPerimeter=0;exitX=0.971;exitY=0.8;exitDx=0;exitDy=0;exitPerimeter=0;" edge="1" parent="1" source="13" target="33">
                    <mxGeometry width="50" height="50" relative="1" as="geometry">
                        <mxPoint x="400" y="560" as="sourcePoint"/>
                        <mxPoint x="450" y="510" as="targetPoint"/>
                    </mxGeometry>
                </mxCell>
                <mxCell id="40" value="" style="endArrow=classic;html=1;entryX=0.994;entryY=0.49;entryDx=0;entryDy=0;entryPerimeter=0;" edge="1" parent="1" target="9">
                    <mxGeometry width="50" height="50" relative="1" as="geometry">
                        <mxPoint x="640" y="279" as="sourcePoint"/>
                        <mxPoint x="450" y="410" as="targetPoint"/>
                    </mxGeometry>
                </mxCell>
            </root>
        </mxGraphModel>
    </diagram>
</mxfile>